<svg xmlns="http://www.w3.org/2000/svg" xmlns:xlink="http://www.w3.org/1999/xlink" width="256" zoomAndPan="magnify" viewBox="0 0 192 191.999996" height="256" preserveAspectRatio="xMidYMid meet" version="1.0"><defs><filter x="0%" y="0%" width="100%" height="100%" id="d7fc51f349"><feColorMatrix values="0 0 0 0 1 0 0 0 0 1 0 0 0 0 1 0 0 0 1 0" color-interpolation-filters="sRGB"/></filter><mask id="4af1a6299f"><g filter="url(#d7fc51f349)"><rect x="-19.2" width="230.4" fill="#000000" y="-19.2" height="230.399995" fill-opacity="0.3"/></g></mask><clipPath id="2813d0a363"><rect x="0" width="192" y="0" height="192"/></clipPath></defs><g mask="url(#4af1a6299f)"><g transform="matrix(1, 0, 0, 1, 0, 0)"><g clip-path="url(#2813d0a363)"><path fill="#000000" d="M 183.6875 190.730469 C 182.0625 190.730469 180.4375 190.105469 179.199219 188.859375 L 3.605469 11.828125 C 1.148438 9.351562 1.164062 5.347656 3.644531 2.886719 C 6.121094 0.429688 10.125 0.445312 12.585938 2.925781 L 188.179688 179.953125 C 190.636719 182.433594 190.621094 186.433594 188.140625 188.894531 C 186.910156 190.117188 185.300781 190.730469 183.6875 190.730469 Z M 183.6875 190.730469 " fill-opacity="1" fill-rule="nonzero"/><path fill="#000000" d="M 164.675781 63.699219 C 164.675781 64.140625 164.632812 64.578125 164.550781 65.011719 C 164.464844 65.441406 164.335938 65.863281 164.171875 66.269531 C 164.003906 66.675781 163.796875 67.0625 163.554688 67.429688 C 163.3125 67.796875 163.035156 68.136719 162.726562 68.445312 C 162.417969 68.757812 162.082031 69.035156 161.71875 69.28125 C 161.355469 69.527344 160.972656 69.734375 160.566406 69.902344 C 160.164062 70.070312 159.746094 70.199219 159.316406 70.285156 C 158.890625 70.371094 158.457031 70.414062 158.019531 70.414062 C 157.582031 70.414062 157.148438 70.371094 156.71875 70.285156 C 156.292969 70.199219 155.875 70.070312 155.472656 69.902344 C 155.066406 69.734375 154.683594 69.527344 154.320312 69.28125 C 153.957031 69.035156 153.621094 68.757812 153.3125 68.445312 C 153.003906 68.136719 152.726562 67.796875 152.484375 67.429688 C 152.242188 67.0625 152.035156 66.675781 151.867188 66.269531 C 151.703125 65.863281 151.574219 65.441406 151.488281 65.011719 C 151.40625 64.578125 151.363281 64.140625 151.363281 63.699219 C 151.363281 63.257812 151.40625 62.824219 151.488281 62.390625 C 151.574219 61.957031 151.703125 61.539062 151.867188 61.132812 C 152.035156 60.722656 152.242188 60.335938 152.484375 59.972656 C 152.726562 59.605469 153.003906 59.265625 153.3125 58.953125 C 153.621094 58.640625 153.957031 58.363281 154.320312 58.121094 C 154.683594 57.875 155.066406 57.667969 155.472656 57.5 C 155.875 57.332031 156.292969 57.203125 156.71875 57.117188 C 157.148438 57.03125 157.582031 56.988281 158.019531 56.988281 C 158.457031 56.988281 158.890625 57.03125 159.316406 57.117188 C 159.746094 57.203125 160.164062 57.332031 160.566406 57.5 C 160.972656 57.667969 161.355469 57.875 161.71875 58.121094 C 162.082031 58.363281 162.417969 58.640625 162.726562 58.953125 C 163.035156 59.265625 163.3125 59.605469 163.554688 59.972656 C 163.796875 60.335938 164.003906 60.722656 164.171875 61.132812 C 164.335938 61.539062 164.464844 61.957031 164.550781 62.390625 C 164.632812 62.824219 164.675781 63.257812 164.675781 63.699219 Z M 164.675781 63.699219 " fill-opacity="1" fill-rule="nonzero"/><path fill="#000000" d="M 157.296875 164.121094 L 25.003906 164.121094 C 11.800781 164.121094 1.054688 153.316406 1.054688 140.03125 L 1.054688 58.496094 C 1.054688 45.210938 11.800781 34.402344 25.003906 34.402344 L 34.597656 34.402344 C 35.761719 34.402344 36.90625 34.199219 38.003906 33.796875 C 41.28125 32.589844 44.914062 34.285156 46.113281 37.5625 C 47.3125 40.84375 45.625 44.472656 42.347656 45.671875 C 39.855469 46.585938 37.246094 47.046875 34.597656 47.046875 L 25.003906 47.046875 C 18.769531 47.046875 13.699219 52.183594 13.699219 58.496094 L 13.699219 140.03125 C 13.699219 146.339844 18.769531 151.476562 25.003906 151.476562 L 157.296875 151.476562 C 160.789062 151.476562 163.617188 154.308594 163.617188 157.800781 C 163.617188 161.292969 160.789062 164.121094 157.296875 164.121094 Z M 157.296875 164.121094 " fill-opacity="1" fill-rule="nonzero"/><path fill="#000000" d="M 95.890625 142.371094 C 70.445312 142.371094 49.742188 121.519531 49.742188 95.890625 C 49.742188 83.488281 54.535156 71.824219 63.242188 63.046875 C 65.699219 60.566406 69.699219 60.546875 72.183594 63.007812 C 74.660156 65.46875 74.679688 69.472656 72.21875 71.953125 C 65.878906 78.34375 62.386719 86.847656 62.386719 95.890625 C 62.386719 114.550781 77.414062 129.726562 95.890625 129.726562 C 104.832031 129.726562 113.238281 126.214844 119.566406 119.835938 C 122.023438 117.351562 126.027344 117.339844 128.507812 119.796875 C 130.988281 122.257812 131.003906 126.257812 128.542969 128.738281 C 119.824219 137.53125 108.230469 142.371094 95.890625 142.371094 Z M 95.890625 142.371094 " fill-opacity="1" fill-rule="nonzero"/><path fill="#000000" d="M 181.0625 156.765625 C 179.785156 156.765625 178.496094 156.378906 177.378906 155.578125 C 174.542969 153.542969 173.894531 149.589844 175.929688 146.753906 C 177.339844 144.792969 178.085938 142.46875 178.085938 140.03125 L 178.085938 58.496094 C 178.085938 52.183594 173.015625 47.046875 166.78125 47.046875 L 157.1875 47.046875 C 148.792969 47.046875 141.125 42.417969 137.175781 34.964844 L 134.277344 29.507812 C 131.800781 24.835938 127.015625 21.9375 121.773438 21.9375 L 70.011719 21.9375 C 65.882812 21.9375 61.96875 23.75 59.273438 26.90625 C 57.003906 29.5625 53.015625 29.878906 50.359375 27.613281 C 47.703125 25.34375 47.386719 21.355469 49.65625 18.699219 C 54.757812 12.71875 62.179688 9.292969 70.011719 9.292969 L 121.777344 9.292969 C 131.710938 9.292969 140.78125 14.769531 145.453125 23.585938 L 148.351562 29.042969 C 150.101562 32.347656 153.488281 34.402344 157.191406 34.402344 L 166.785156 34.402344 C 179.984375 34.402344 190.730469 45.210938 190.730469 58.496094 L 190.730469 140.03125 C 190.730469 145.128906 189.164062 150.003906 186.203125 154.128906 C 184.96875 155.847656 183.027344 156.765625 181.0625 156.765625 Z M 181.0625 156.765625 " fill-opacity="1" fill-rule="nonzero"/><path fill="#000000" d="M 134.996094 109.921875 C 134.601562 109.921875 134.199219 109.882812 133.796875 109.804688 C 130.367188 109.148438 128.125 105.832031 128.78125 102.402344 C 129.191406 100.265625 129.402344 98.074219 129.402344 95.890625 C 129.402344 77.234375 114.367188 62.054688 95.894531 62.054688 C 93.636719 62.054688 91.382812 62.28125 89.199219 62.730469 C 85.78125 63.433594 82.441406 61.226562 81.738281 57.804688 C 81.035156 54.382812 83.242188 51.042969 86.664062 50.34375 C 89.683594 49.726562 92.785156 49.410156 95.894531 49.410156 C 121.34375 49.410156 142.046875 70.261719 142.046875 95.890625 C 142.046875 98.875 141.761719 101.871094 141.203125 104.789062 C 140.617188 107.816406 137.96875 109.921875 134.996094 109.921875 Z M 134.996094 109.921875 " fill-opacity="1" fill-rule="nonzero"/></g></g></g></svg>